<svg id="a3c260f6-351b-4702-b8f3-0a883cbe09b8" data-name="Calque 1" xmlns="http://www.w3.org/2000/svg" xmlns:xlink="http://www.w3.org/1999/xlink" viewBox="0 0 329 68"><defs><linearGradient id="ad26402c-02c7-4422-8b7f-03a031a9f5cf" x1="18.81" y1="31.49" x2="295.86" y2="35.62" gradientUnits="userSpaceOnUse"><stop offset="0" stop-color="#002bdd"/><stop offset="0.54" stop-color="#2988c9"/><stop offset="1" stop-color="#52c3f1"/></linearGradient></defs><g id="b1aa5abb-092b-4674-a907-36244a035cb3" data-name="Page-1"><path id="a304a9a1-adfc-477d-9233-fbc4749af052" data-name="federage" d="M16.79,51V17h5.64V11.36H16.79v-.55A5,5,0,0,1,18.3,7.17a4.86,4.86,0,0,1,3.59-1.53H28V0H16.32A10.2,10.2,0,0,0,8.8,3.2a10.44,10.44,0,0,0-3.16,7.61v.55H0V17H5.64V51Zm39.92,0q10,0,11.29-11.46H62.36c0,3.84-1.89,5.77-5.65,5.77H51a5.38,5.38,0,0,1-4-1.72,5.61,5.61,0,0,1-1.66-4.05h0V33.85H68V22.39a11,11,0,0,0-3.33-8,10.83,10.83,0,0,0-8-3.36H45.36a10.91,10.91,0,0,0-8,3.36,10.94,10.94,0,0,0-3.37,8h0V39.54A11.49,11.49,0,0,0,45.36,51H56.71ZM56,28H45V22.47A5.5,5.5,0,0,1,50.47,17a5.37,5.37,0,0,1,3.92,1.61A5.29,5.29,0,0,1,56,22.47h0ZM96,51c3.35,0,5.26-1.88,5.71-5.64h0V51H113V0H101.71V11.36H90.36a11,11,0,0,0-8,3.33,10.78,10.78,0,0,0-3.37,8h0v17A11.44,11.44,0,0,0,90.36,51H96Zm.47-6a5.17,5.17,0,0,1-3.86-1.68,5.55,5.55,0,0,1-1.61-4h0V22.57a5.41,5.41,0,0,1,1.61-3.92A5.21,5.21,0,0,1,96.47,17H102V39.36a5.55,5.55,0,0,1-1.61,4A5.25,5.25,0,0,1,96.47,45Zm51.24,6q10,0,11.29-11.46h-5.64c0,3.84-1.89,5.77-5.65,5.77H142a5.38,5.38,0,0,1-4-1.72,5.61,5.61,0,0,1-1.66-4.05h0V33.85H159V22.39a11,11,0,0,0-3.33-8,10.83,10.83,0,0,0-8-3.36H136.36a10.91,10.91,0,0,0-8,3.36,10.94,10.94,0,0,0-3.37,8h0V39.54A11.49,11.49,0,0,0,136.36,51h11.35ZM147,28H136V22.47A5.5,5.5,0,0,1,141.47,17a5.37,5.37,0,0,1,3.92,1.61A5.29,5.29,0,0,1,147,22.47h0Zm34.21,23V28.15a5.61,5.61,0,0,1,1.65-4.08,5.3,5.3,0,0,1,3.93-1.68H198V11h-5.57c-3.32,0-5.9.95-7.76,2.85s-3,4.74-3.46,8.54h0V11H170V51ZM221,51c3.35,0,5.26-1.9,5.71-5.69V51H238V22.39a11,11,0,0,0-3.33-8,10.83,10.83,0,0,0-8-3.36H215.36q-10,0-11.36,11.39h5.71q.61-5.7,5.65-5.7H221a5.72,5.72,0,0,1,5.71,5.7v5.76H215.36A11.49,11.49,0,0,0,204,39.54,11.49,11.49,0,0,0,215.36,51Zm.47-6a5.21,5.21,0,0,1-3.86-1.65A5.37,5.37,0,0,1,216,39.47,5.5,5.5,0,0,1,221.47,34H227v5.47a5.37,5.37,0,0,1-1.61,3.88A5.3,5.3,0,0,1,221.47,45Zm51.24,23a10.78,10.78,0,0,0,8-3.39,11.08,11.08,0,0,0,3.33-8h0V11H261.36a10.94,10.94,0,0,0-8,3.35,10.91,10.91,0,0,0-3.37,8h0V39.47a11.47,11.47,0,0,0,11.36,11.42H267c3.35,0,5.26-1.89,5.71-5.68h0V56.57A5.7,5.7,0,0,1,267,62.32h-5.64c-3.49,0-5.38-1.92-5.65-5.75H250Q251.37,68,261.36,68h11.35Zm-6.24-23a5.17,5.17,0,0,1-3.86-1.68,5.55,5.55,0,0,1-1.61-4h0V22.57a5.41,5.41,0,0,1,1.61-3.92A5.21,5.21,0,0,1,266.47,17H272V39.36a5.55,5.55,0,0,1-1.61,4A5.25,5.25,0,0,1,266.47,45Zm51.24,6q10,0,11.29-11.46h-5.64c0,3.84-1.89,5.77-5.65,5.77H312a5.38,5.38,0,0,1-4-1.72,5.61,5.61,0,0,1-1.66-4.05h0V33.85H329V22.39a11,11,0,0,0-3.33-8,10.83,10.83,0,0,0-8-3.36H306.36a10.91,10.91,0,0,0-8,3.36,10.94,10.94,0,0,0-3.37,8h0V39.54A11.49,11.49,0,0,0,306.36,51h11.35ZM317,28H306V22.47A5.5,5.5,0,0,1,311.47,17a5.37,5.37,0,0,1,3.92,1.61A5.29,5.29,0,0,1,317,22.47h0Z" transform="translate(0 0)" style="fill-rule:evenodd;fill:url(#ad26402c-02c7-4422-8b7f-03a031a9f5cf)"/></g></svg>
